<svg width="12" height="13" viewBox="0 0 12 13" fill="none" xmlns="http://www.w3.org/2000/svg">
<path d="M5.14286 4.35714C5.14286 5.06696 4.56696 5.64286 3.85714 5.64286H1.28571C0.575625 5.64286 0 5.06696 0 4.35714V1.78571C0 1.07563 0.575625 0.5 1.28571 0.5H3.85714C4.56696 0.5 5.14286 1.07563 5.14286 1.78571V4.35714ZM5.14286 11.2143C5.14286 11.9241 4.56696 12.5 3.85714 12.5H1.28571C0.575625 12.5 0 11.9241 0 11.2143V8.64286C0 7.93304 0.575625 7.35714 1.28571 7.35714H3.85714C4.56696 7.35714 5.14286 7.93304 5.14286 8.64286V11.2143ZM6.85714 1.78571C6.85714 1.07563 7.43304 0.5 8.14286 0.5H10.7143C11.4241 0.5 12 1.07563 12 1.78571V4.35714C12 5.06696 11.4241 5.64286 10.7143 5.64286H8.14286C7.43304 5.64286 6.85714 5.06696 6.85714 4.35714V1.78571ZM12 11.2143C12 11.9241 11.4241 12.5 10.7143 12.5H8.14286C7.43304 12.5 6.85714 11.9241 6.85714 11.2143V8.64286C6.85714 7.93304 7.43304 7.35714 8.14286 7.35714H10.7143C11.4241 7.35714 12 7.93304 12 8.64286V11.2143Z" fill="#595F60"/>
</svg>
