<svg width="12" height="11" viewBox="0 0 12 11" fill="none" xmlns="http://www.w3.org/2000/svg">
<path d="M0 1.66129C0 1.01992 0.519919 0.5 1.16129 0.5C1.80266 0.5 2.32258 1.01992 2.32258 1.66129C2.32258 2.30242 1.80266 2.82258 1.16129 2.82258C0.519919 2.82258 0 2.30242 0 1.66129ZM11.2258 0.887097C11.654 0.887097 12 1.23379 12 1.66129C12 2.08952 11.654 2.43548 11.2258 2.43548H4.25806C3.82984 2.43548 3.48387 2.08952 3.48387 1.66129C3.48387 1.23379 3.82984 0.887097 4.25806 0.887097H11.2258ZM11.2258 4.75806C11.654 4.75806 12 5.10403 12 5.53226C12 5.96048 11.654 6.30645 11.2258 6.30645H4.25806C3.82984 6.30645 3.48387 5.96048 3.48387 5.53226C3.48387 5.10403 3.82984 4.75806 4.25806 4.75806H11.2258ZM11.2258 8.62903C11.654 8.62903 12 8.975 12 9.40323C12 9.83145 11.654 10.1774 11.2258 10.1774H4.25806C3.82984 10.1774 3.48387 9.83145 3.48387 9.40323C3.48387 8.975 3.82984 8.62903 4.25806 8.62903H11.2258ZM0 9.40323C0 8.7621 0.519919 8.24194 1.16129 8.24194C1.80266 8.24194 2.32258 8.7621 2.32258 9.40323C2.32258 10.0444 1.80266 10.5645 1.16129 10.5645C0.519919 10.5645 0 10.0444 0 9.40323ZM2.32258 5.53226C2.32258 6.17339 1.80266 6.69355 1.16129 6.69355C0.519919 6.69355 0 6.17339 0 5.53226C0 4.89113 0.519919 4.37097 1.16129 4.37097C1.80266 4.37097 2.32258 4.89113 2.32258 5.53226Z" fill="#125169"/>
</svg>
