<svg width="12" height="12" viewBox="0 0 12 12" fill="none" xmlns="http://www.w3.org/2000/svg">
<path d="M11.8148 11.0391L8.67422 7.89844C9.35391 7.06641 9.72891 6.01875 9.72891 4.875C9.72891 2.18203 7.54618 0 4.85391 0C2.16165 0 0 2.18273 0 4.875C0 7.56727 2.1825 9.75 4.85391 9.75C5.99743 9.75 7.04649 9.35367 7.87735 8.69438L11.018 11.835C11.1492 11.9461 11.2945 12 11.4375 12C11.5805 12 11.7253 11.9451 11.8352 11.8352C12.0539 11.6156 12.0539 11.2594 11.8148 11.0391ZM1.125 4.875C1.125 2.80734 2.80735 1.125 4.875 1.125C6.94266 1.125 8.625 2.80734 8.625 4.875C8.625 6.94266 6.94266 8.625 4.875 8.625C2.80735 8.625 1.125 6.94219 1.125 4.875Z" fill="#595F60"/>
</svg>
